<svg height="1982" width="720" xmlns="http://www.w3.org/2000/svg">
<rect height="1982" fill="#555" width="720"></rect>
<text fill="#7f7" font-family="Courier New" font-size="12" xml:space="preserve">
<tspan x="10" y="26">6 megabytes installed</tspan>
<tspan x="10" y="42"></tspan>
<tspan x="10" y="58">node_modules</tspan>
<tspan x="10" y="74">└─┬ hpm-cli@2.0.1 </tspan>
<tspan x="10" y="90">  ├─┬ args@2.4.1 </tspan>
<tspan x="10" y="106">  │ ├── camelcase@4.0.0 </tspan>
<tspan x="10" y="122">  │ ├── minimist@1.2.0 </tspan>
<tspan x="10" y="138">  │ └── pkginfo@0.4.0 </tspan>
<tspan x="10" y="154">  ├─┬ chalk@1.1.3 </tspan>
<tspan x="10" y="170">  │ ├── ansi-styles@2.2.1 </tspan>
<tspan x="10" y="186">  │ ├── escape-string-regexp@1.0.5 </tspan>
<tspan x="10" y="202">  │ ├─┬ has-ansi@2.0.0 </tspan>
<tspan x="10" y="218">  │ │ └── ansi-regex@2.1.1 </tspan>
<tspan x="10" y="234">  │ ├── strip-ansi@3.0.1 </tspan>
<tspan x="10" y="250">  │ └── supports-color@2.0.0 </tspan>
<tspan x="10" y="266">  ├─┬ columnify@1.5.4 </tspan>
<tspan x="10" y="282">  │ └─┬ wcwidth@1.0.1 </tspan>
<tspan x="10" y="298">  │   └─┬ defaults@1.0.3 </tspan>
<tspan x="10" y="314">  │     └── clone@1.0.2 </tspan>
<tspan x="10" y="330">  ├─┬ execa@0.5.1 </tspan>
<tspan x="10" y="346">  │ ├─┬ cross-spawn@4.0.2 </tspan>
<tspan x="10" y="362">  │ │ ├─┬ lru-cache@4.0.2 </tspan>
<tspan x="10" y="378">  │ │ │ ├── pseudomap@1.0.2 </tspan>
<tspan x="10" y="394">  │ │ │ └── yallist@2.1.2 </tspan>
<tspan x="10" y="410">  │ │ └─┬ which@1.2.14 </tspan>
<tspan x="10" y="426">  │ │   └── isexe@2.0.0 </tspan>
<tspan x="10" y="442">  │ ├── get-stream@2.3.1 </tspan>
<tspan x="10" y="458">  │ ├── is-stream@1.1.0 </tspan>
<tspan x="10" y="474">  │ ├─┬ npm-run-path@2.0.2 </tspan>
<tspan x="10" y="490">  │ │ └── path-key@2.0.1 </tspan>
<tspan x="10" y="506">  │ ├── p-finally@1.0.0 </tspan>
<tspan x="10" y="522">  │ ├── signal-exit@3.0.2 </tspan>
<tspan x="10" y="538">  │ └── strip-eof@1.0.0 </tspan>
<tspan x="10" y="554">  ├── file-exists@2.0.0 </tspan>
<tspan x="10" y="570">  ├─┬ got@6.7.1 </tspan>
<tspan x="10" y="586">  │ ├─┬ create-error-class@3.0.2 </tspan>
<tspan x="10" y="602">  │ │ └── capture-stack-trace@1.0.0 </tspan>
<tspan x="10" y="618">  │ ├── duplexer3@0.1.4 </tspan>
<tspan x="10" y="634">  │ ├── get-stream@3.0.0 </tspan>
<tspan x="10" y="650">  │ ├── is-redirect@1.0.0 </tspan>
<tspan x="10" y="666">  │ ├── is-retry-allowed@1.1.0 </tspan>
<tspan x="10" y="682">  │ ├── lowercase-keys@1.0.0 </tspan>
<tspan x="10" y="698">  │ ├── safe-buffer@5.0.1 </tspan>
<tspan x="10" y="714">  │ ├── timed-out@4.0.1 </tspan>
<tspan x="10" y="730">  │ ├── unzip-response@2.0.1 </tspan>
<tspan x="10" y="746">  │ └─┬ url-parse-lax@1.0.0 </tspan>
<tspan x="10" y="762">  │   └── prepend-http@1.0.4 </tspan>
<tspan x="10" y="778">  ├─┬ npm-name@3.0.0 </tspan>
<tspan x="10" y="794">  │ ├── lodash.zip@4.2.0 </tspan>
<tspan x="10" y="810">  │ └─┬ registry-url@3.1.0 </tspan>
<tspan x="10" y="826">  │   └─┬ rc@1.2.1 </tspan>
<tspan x="10" y="842">  │     ├── deep-extend@0.4.1 </tspan>
<tspan x="10" y="858">  │     ├── ini@1.3.4 </tspan>
<tspan x="10" y="874">  │     └── strip-json-comments@2.0.1 </tspan>
<tspan x="10" y="890">  ├─┬ opn@4.0.2 </tspan>
<tspan x="10" y="906">  │ ├── object-assign@4.1.1 </tspan>
<tspan x="10" y="922">  │ └─┬ pinkie-promise@2.0.1 </tspan>
<tspan x="10" y="938">  │   └── pinkie@2.0.4 </tspan>
<tspan x="10" y="954">  ├─┬ ora@0.3.0 </tspan>
<tspan x="10" y="970">  │ ├─┬ cli-cursor@1.0.2 </tspan>
<tspan x="10" y="986">  │ │ └─┬ restore-cursor@1.0.1 </tspan>
<tspan x="10" y="1002">  │ │   ├── exit-hook@1.1.1 </tspan>
<tspan x="10" y="1018">  │ │   └── onetime@1.1.0 </tspan>
<tspan x="10" y="1034">  │ ├── cli-spinners@0.2.0 </tspan>
<tspan x="10" y="1050">  │ └── log-symbols@1.0.2 </tspan>
<tspan x="10" y="1066">  ├── pify@2.3.0 </tspan>
<tspan x="10" y="1082">  ├─┬ recast@0.11.23 </tspan>
<tspan x="10" y="1098">  │ ├── ast-types@0.9.6 </tspan>
<tspan x="10" y="1114">  │ ├── esprima@3.1.3 </tspan>
<tspan x="10" y="1130">  │ ├── private@0.1.7 </tspan>
<tspan x="10" y="1146">  │ └── source-map@0.5.6 </tspan>
<tspan x="10" y="1162">  └─┬ update-notifier@1.0.3 </tspan>
<tspan x="10" y="1178">    ├─┬ boxen@0.6.0 </tspan>
<tspan x="10" y="1194">    │ ├── ansi-align@1.1.0 </tspan>
<tspan x="10" y="1210">    │ ├── camelcase@2.1.1 </tspan>
<tspan x="10" y="1226">    │ ├── cli-boxes@1.0.0 </tspan>
<tspan x="10" y="1242">    │ ├── filled-array@1.1.0 </tspan>
<tspan x="10" y="1258">    │ ├─┬ repeating@2.0.1 </tspan>
<tspan x="10" y="1274">    │ │ └─┬ is-finite@1.0.2 </tspan>
<tspan x="10" y="1290">    │ │   └── number-is-nan@1.0.1 </tspan>
<tspan x="10" y="1306">    │ ├─┬ string-width@1.0.2 </tspan>
<tspan x="10" y="1322">    │ │ ├── code-point-at@1.1.0 </tspan>
<tspan x="10" y="1338">    │ │ └── is-fullwidth-code-point@1.0.0 </tspan>
<tspan x="10" y="1354">    │ └── widest-line@1.0.0 </tspan>
<tspan x="10" y="1370">    ├─┬ configstore@2.1.0 </tspan>
<tspan x="10" y="1386">    │ ├─┬ dot-prop@3.0.0 </tspan>
<tspan x="10" y="1402">    │ │ └── is-obj@1.0.1 </tspan>
<tspan x="10" y="1418">    │ ├── graceful-fs@4.1.11 </tspan>
<tspan x="10" y="1434">    │ ├─┬ mkdirp@0.5.1 </tspan>
<tspan x="10" y="1450">    │ │ └── minimist@0.0.8 </tspan>
<tspan x="10" y="1466">    │ ├── os-tmpdir@1.0.2 </tspan>
<tspan x="10" y="1482">    │ ├── osenv@0.1.4 </tspan>
<tspan x="10" y="1498">    │ ├── uuid@2.0.3 </tspan>
<tspan x="10" y="1514">    │ └─┬ write-file-atomic@1.3.1 </tspan>
<tspan x="10" y="1530">    │   ├── imurmurhash@0.1.4 </tspan>
<tspan x="10" y="1546">    │   └── slide@1.1.6 </tspan>
<tspan x="10" y="1562">    ├── is-npm@1.0.0 </tspan>
<tspan x="10" y="1578">    ├─┬ latest-version@2.0.0 </tspan>
<tspan x="10" y="1594">    │ └─┬ package-json@2.4.0 </tspan>
<tspan x="10" y="1610">    │   ├─┬ got@5.7.1 </tspan>
<tspan x="10" y="1626">    │   │ ├── duplexer2@0.1.4 </tspan>
<tspan x="10" y="1642">    │   │ ├── node-status-codes@1.0.0 </tspan>
<tspan x="10" y="1658">    │   │ ├─┬ parse-json@2.2.0 </tspan>
<tspan x="10" y="1674">    │   │ │ └─┬ error-ex@1.3.1 </tspan>
<tspan x="10" y="1690">    │   │ │   └── is-arrayish@0.2.1 </tspan>
<tspan x="10" y="1706">    │   │ ├── read-all-stream@3.1.0 </tspan>
<tspan x="10" y="1722">    │   │ ├─┬ readable-stream@2.2.9 </tspan>
<tspan x="10" y="1738">    │   │ │ ├── buffer-shims@1.0.0 </tspan>
<tspan x="10" y="1754">    │   │ │ ├── core-util-is@1.0.2 </tspan>
<tspan x="10" y="1770">    │   │ │ ├── inherits@2.0.3 </tspan>
<tspan x="10" y="1786">    │   │ │ ├── isarray@1.0.0 </tspan>
<tspan x="10" y="1802">    │   │ │ ├── process-nextick-args@1.0.7 </tspan>
<tspan x="10" y="1818">    │   │ │ ├── string_decoder@1.0.0 </tspan>
<tspan x="10" y="1834">    │   │ │ └── util-deprecate@1.0.2 </tspan>
<tspan x="10" y="1850">    │   │ ├── timed-out@3.1.3 </tspan>
<tspan x="10" y="1866">    │   │ └── unzip-response@1.0.2 </tspan>
<tspan x="10" y="1882">    │   └── registry-auth-token@3.1.2 </tspan>
<tspan x="10" y="1898">    ├── lazy-req@1.1.0 </tspan>
<tspan x="10" y="1914">    ├─┬ semver-diff@2.1.0 </tspan>
<tspan x="10" y="1930">    │ └── semver@5.3.0 </tspan>
<tspan x="10" y="1946">    └─┬ xdg-basedir@2.0.0 </tspan>
<tspan x="10" y="1962">      └── os-homedir@1.0.2</tspan>
</text>
</svg>
